<?xml version="1.0" standalone="no"?>
<svg
  width="600"
  height="600"
  viewBox="0 0 600 600"
  xmlns="http://www.w3.org/2000/svg"
>
  <g transform="translate(300,300)">
    <path d="M70.4,-108.5C93.9,-94.4,117.4,-79.4,147.8,-55.1C178.1,-30.8,215.3,2.7,221.9,39.5C228.5,76.4,204.6,116.4,172,142.7C139.4,168.9,98.1,181.4,55.5,198.2C12.8,214.9,-31.4,236,-71.8,230.6C-112.3,225.1,-149.1,193.1,-170,155.1C-190.9,117,-195.9,73,-183.9,37.5C-171.9,2,-142.8,-25,-126,-55.7C-109.1,-86.5,-104.6,-121.1,-85.6,-137.2C-66.7,-153.4,-33.3,-151.2,-5,-143.5C23.4,-135.8,46.9,-122.6,70.4,-108.5Z" fill="#DFE6E9" />
  </g>
</svg>
    